<svg xmlns="http://www.w3.org/2000/svg" viewBox="0 0 96 112" role="img" aria-label="Midnight Valet location pin logo">
  <defs>
    <linearGradient id="pinGold" x1="12" y1="5" x2="82" y2="105" gradientUnits="userSpaceOnUse">
      <stop offset="0" stop-color="#ffe16b"/>
      <stop offset="0.42" stop-color="#ffcb05"/>
      <stop offset="1" stop-color="#e3a900"/>
    </linearGradient>
    <linearGradient id="core" x1="30" y1="18" x2="72" y2="70" gradientUnits="userSpaceOnUse">
      <stop offset="0" stop-color="#2a3142"/>
      <stop offset="1" stop-color="#111827"/>
    </linearGradient>
    <filter id="shadow" x="-20%" y="-14%" width="140%" height="140%">
      <feDropShadow dx="0" dy="6" stdDeviation="5" flood-color="#111827" flood-opacity=".24"/>
    </filter>
  </defs>
  <path d="M48 108c-6.6-10.4-13.8-19.6-21.6-27.8C15.1 68.2 9.5 56.4 9.5 44.8 9.5 22.5 26.6 6 48 6s38.5 16.5 38.5 38.8c0 11.6-5.6 23.4-16.9 35.4C61.8 88.4 54.6 97.6 48 108Z" fill="url(#pinGold)" filter="url(#shadow)"/>
  <circle cx="48" cy="43.5" r="30" fill="url(#core)" stroke="#f8fbff" stroke-width="5"/>
  <path d="M30 59V30l18 17.2L66 30v29" fill="none" stroke="#ffcb05" stroke-width="5.2" stroke-linecap="round" stroke-linejoin="round"/>
  <path d="M38 57h20" fill="none" stroke="#ffcb05" stroke-width="4.4" stroke-linecap="round"/>
</svg>
